<svg version="1.1" xmlns="http://www.w3.org/2000/svg" xmlns:xlink="http://www.w3.org/1999/xlink" width="16.000000" height="16.000000" viewBox="0,0,256,256"><g fill="#ffffff" fill-rule="nonzero" stroke="none" stroke-width="1" stroke-linecap="butt" stroke-linejoin="miter" stroke-miterlimit="10" stroke-dasharray="" stroke-dashoffset="0" font-family="none" font-weight="none" font-size="none" text-anchor="none" style="mix-blend-mode: normal"><g transform="translate(0.08,0.032) scale(16,16)"><path d="M6,0.27c0.09,0.12 0.15,0.27 0.17,0.42c0.01,0.15 -0.02,0.31 -0.09,0.44c-0.58,1.06 -0.88,2.25 -0.88,3.46c0,4.02 3.28,7.28 7.32,7.28c0.52,0 1.04,-0.06 1.53,-0.16c0.15,-0.03 0.31,-0.02 0.45,0.03c0.15,0.06 0.27,0.16 0.36,0.28c0.09,0.14 0.14,0.29 0.14,0.46c-0.01,0.16 -0.07,0.31 -0.17,0.44c-0.79,0.96 -1.78,1.74 -2.9,2.27c-1.12,0.53 -2.35,0.81 -3.59,0.81c-4.61,0 -8.34,-3.72 -8.34,-8.3c0,-3.44 2.11,-6.39 5.12,-7.65c0.15,-0.06 0.32,-0.07 0.47,-0.03c0.16,0.04 0.3,0.13 0.41,0.25z"></path><path d="M10.79,3.14c0.01,-0.04 0.04,-0.08 0.08,-0.11c0.04,-0.02 0.08,-0.04 0.13,-0.04c0.04,0 0.08,0.02 0.12,0.04c0.04,0.03 0.07,0.07 0.08,0.11l0.39,1.16c0.17,0.52 0.58,0.93 1.1,1.1l1.16,0.39c0.04,0.01 0.08,0.04 0.11,0.08c0.02,0.03 0.04,0.08 0.04,0.12c0,0.05 -0.02,0.09 -0.04,0.13c-0.03,0.04 -0.07,0.07 -0.11,0.08l-1.16,0.39c-0.26,0.08 -0.49,0.23 -0.68,0.42c-0.19,0.19 -0.34,0.42 -0.42,0.67l-0.39,1.17c-0.01,0.04 -0.04,0.08 -0.08,0.1c-0.04,0.03 -0.08,0.05 -0.12,0.05c-0.05,0 -0.09,-0.02 -0.13,-0.05c-0.04,-0.02 -0.07,-0.06 -0.08,-0.1l-0.39,-1.17c-0.08,-0.25 -0.23,-0.48 -0.42,-0.67c-0.19,-0.19 -0.42,-0.34 -0.68,-0.42l-1.16,-0.39c-0.04,-0.01 -0.08,-0.04 -0.1,-0.08c-0.03,-0.04 -0.05,-0.08 -0.05,-0.13c0,-0.04 0.02,-0.09 0.05,-0.12c0.02,-0.04 0.06,-0.07 0.1,-0.08l1.16,-0.39c0.26,-0.08 0.49,-0.23 0.68,-0.42c0.19,-0.19 0.34,-0.42 0.42,-0.68zM13.86,0.09c0.01,-0.03 0.03,-0.05 0.05,-0.07c0.03,-0.01 0.05,-0.02 0.09,-0.02c0.03,0 0.05,0.01 0.08,0.02c0.02,0.02 0.04,0.04 0.05,0.07l0.26,0.78c0.11,0.34 0.39,0.61 0.73,0.73l0.78,0.26c0.02,0.01 0.05,0.03 0.07,0.05c0.01,0.02 0.02,0.05 0.02,0.08c0,0.03 -0.01,0.06 -0.02,0.09c-0.02,0.02 -0.05,0.04 -0.07,0.05l-0.78,0.26c-0.17,0.06 -0.32,0.15 -0.45,0.28c-0.13,0.13 -0.22,0.28 -0.28,0.45l-0.26,0.78c-0.01,0.02 -0.03,0.05 -0.05,0.07c-0.03,0.01 -0.05,0.02 -0.08,0.02c-0.04,0 -0.06,-0.01 -0.09,-0.02c-0.02,-0.02 -0.04,-0.05 -0.05,-0.07l-0.26,-0.78c-0.06,-0.17 -0.15,-0.32 -0.28,-0.45c-0.13,-0.13 -0.28,-0.22 -0.45,-0.28l-0.78,-0.26c-0.02,-0.01 -0.05,-0.03 -0.07,-0.05c-0.01,-0.03 -0.02,-0.06 -0.02,-0.09c0,-0.03 0.01,-0.06 0.02,-0.08c0.02,-0.02 0.05,-0.04 0.07,-0.05l0.78,-0.26c0.34,-0.12 0.62,-0.39 0.73,-0.73l0.26,-0.78z"></path></g></g></svg>