<svg version="1.1" xmlns="http://www.w3.org/2000/svg" xmlns:xlink="http://www.w3.org/1999/xlink" width="16.000000" height="16.000000" viewBox="0,0,256,256"><g fill="#ffffff" fill-rule="nonzero" stroke="none" stroke-width="1" stroke-linecap="butt" stroke-linejoin="miter" stroke-miterlimit="10" stroke-dasharray="" stroke-dashoffset="0" font-family="none" font-weight="none" font-size="none" text-anchor="none" style="mix-blend-mode: normal"><g transform="scale(16,16)"><path d="M8,11c-0.8,0 -1.56,-0.32 -2.13,-0.88c-0.56,-0.57 -0.87,-1.33 -0.87,-2.12c0,-0.8 0.31,-1.56 0.87,-2.13c0.57,-0.56 1.33,-0.87 2.13,-0.87c0.79,0 1.55,0.31 2.12,0.87c0.56,0.57 0.88,1.33 0.88,2.13c0,0.79 -0.32,1.55 -0.88,2.12c-0.57,0.56 -1.33,0.88 -2.12,0.88zM8,12c1.06,0 2.07,-0.43 2.82,-1.18c0.75,-0.75 1.18,-1.76 1.18,-2.82c0,-1.07 -0.43,-2.08 -1.18,-2.83c-0.75,-0.75 -1.76,-1.17 -2.82,-1.17c-1.07,0 -2.08,0.42 -2.83,1.17c-0.75,0.75 -1.17,1.76 -1.17,2.83c0,1.06 0.42,2.07 1.17,2.82c0.75,0.75 1.76,1.18 2.83,1.18zM8,0c0.13,0 0.25,0.05 0.35,0.14c0.09,0.1 0.15,0.22 0.15,0.36v2c0,0.13 -0.06,0.25 -0.15,0.35c-0.1,0.09 -0.22,0.15 -0.35,0.15c-0.14,0 -0.26,-0.06 -0.36,-0.15c-0.09,-0.1 -0.14,-0.22 -0.14,-0.35v-2c0,-0.14 0.05,-0.26 0.14,-0.36c0.1,-0.09 0.22,-0.14 0.36,-0.14zM8,13c0.13,0 0.25,0.05 0.35,0.14c0.09,0.1 0.15,0.22 0.15,0.36v2c0,0.13 -0.06,0.25 -0.15,0.35c-0.1,0.09 -0.22,0.15 -0.35,0.15c-0.14,0 -0.26,-0.06 -0.36,-0.15c-0.09,-0.1 -0.14,-0.22 -0.14,-0.35v-2c0,-0.14 0.05,-0.26 0.14,-0.36c0.1,-0.09 0.22,-0.14 0.36,-0.14zM16,8c0,0.13 -0.06,0.25 -0.15,0.35c-0.1,0.09 -0.22,0.15 -0.35,0.15h-2c-0.14,0 -0.26,-0.06 -0.36,-0.15c-0.09,-0.1 -0.14,-0.22 -0.14,-0.35c0,-0.14 0.05,-0.26 0.14,-0.36c0.1,-0.09 0.22,-0.14 0.36,-0.14h2c0.13,0 0.25,0.05 0.35,0.14c0.09,0.1 0.15,0.22 0.15,0.36zM3,8c0,0.13 -0.06,0.25 -0.15,0.35c-0.1,0.09 -0.22,0.15 -0.35,0.15h-2c-0.14,0 -0.26,-0.06 -0.36,-0.15c-0.09,-0.1 -0.14,-0.22 -0.14,-0.35c0,-0.14 0.05,-0.26 0.14,-0.36c0.1,-0.09 0.22,-0.14 0.36,-0.14h2c0.13,0 0.25,0.05 0.35,0.14c0.09,0.1 0.15,0.22 0.15,0.36zM13.65,2.34c0.1,0.09 0.15,0.22 0.15,0.35c0,0.13 -0.05,0.26 -0.15,0.36l-1.41,1.41c-0.05,0.05 -0.1,0.08 -0.16,0.11c-0.07,0.02 -0.13,0.04 -0.2,0.04c-0.13,0 -0.26,-0.06 -0.35,-0.15c-0.05,-0.05 -0.08,-0.1 -0.11,-0.16c-0.02,-0.06 -0.04,-0.13 -0.04,-0.19c0,-0.14 0.06,-0.26 0.15,-0.36l1.42,-1.41c0.09,-0.1 0.22,-0.15 0.35,-0.15c0.13,0 0.26,0.05 0.35,0.15zM4.46,11.53c0.09,0.09 0.15,0.22 0.15,0.35c0,0.14 -0.06,0.26 -0.15,0.36l-1.42,1.41c-0.09,0.09 -0.22,0.14 -0.35,0.14c-0.13,0 -0.25,-0.05 -0.35,-0.14c-0.09,-0.1 -0.14,-0.22 -0.14,-0.35c0,-0.13 0.05,-0.26 0.14,-0.35l1.41,-1.42c0.1,-0.09 0.22,-0.15 0.36,-0.15c0.13,0 0.26,0.06 0.35,0.15zM13.65,13.65c-0.09,0.1 -0.22,0.15 -0.35,0.15c-0.13,0 -0.26,-0.05 -0.35,-0.15l-1.42,-1.41c-0.09,-0.1 -0.14,-0.22 -0.14,-0.35c0,-0.13 0.05,-0.26 0.15,-0.35c0.09,-0.1 0.21,-0.15 0.35,-0.15c0.13,0 0.25,0.05 0.35,0.14l1.41,1.42c0.1,0.09 0.15,0.22 0.15,0.35c0,0.13 -0.05,0.26 -0.15,0.35zM4.46,4.46c-0.09,0.09 -0.22,0.15 -0.35,0.15c-0.14,0 -0.26,-0.06 -0.36,-0.15l-1.41,-1.41c-0.05,-0.05 -0.09,-0.11 -0.11,-0.17c-0.03,-0.06 -0.04,-0.12 -0.04,-0.19c-0.01,-0.07 0.01,-0.13 0.03,-0.19c0.03,-0.07 0.07,-0.12 0.11,-0.17c0.05,-0.05 0.1,-0.08 0.17,-0.11c0.06,-0.02 0.12,-0.04 0.19,-0.03c0.07,0 0.13,0.01 0.19,0.04c0.06,0.02 0.12,0.06 0.16,0.11l1.42,1.41c0.05,0.05 0.08,0.1 0.11,0.16c0.02,0.07 0.04,0.13 0.04,0.2c0,0.06 -0.02,0.13 -0.04,0.19c-0.03,0.06 -0.06,0.11 -0.11,0.16z"></path></g></g></svg>